<svg width="695" height="638" viewBox="0 0 695 638" fill="none" xmlns="http://www.w3.org/2000/svg">
<path d="M348.001 23.0176C502.088 23.0177 638.501 145.018 622.501 332.018C603.51 443.589 540.441 538.606 440.001 574.597V637.018H379.001V578.79C369.408 581.512 358.857 583.018 347.78 583.018C347.483 583.018 347.187 583.015 346.891 583.013C346.595 583.015 346.298 583.018 346.001 583.018C334.924 583.018 324.373 581.512 314.78 578.79V637.018H253.78V574.597C153.341 538.606 90.2713 443.589 71.2804 332.018C55.2804 145.018 191.693 23.0177 345.78 23.0176C346.151 23.0176 346.521 23.0191 346.891 23.0205C347.261 23.0191 347.631 23.0176 348.001 23.0176Z" fill="url(#paint0_linear_241_142)"/>
<g opacity="0.2">
<g clip-path="url(#clip0_241_142)">
<path d="M110 257.518C128.025 142.782 227.436 55.0175 347.372 55.0175C467.308 55.0175 566.72 142.782 584.745 257.518L110 257.518Z" fill="#2072E6"/>
<path d="M136.072 383.143C176.758 308.316 256.126 257.518 347.372 257.518C438.619 257.518 517.986 308.316 558.673 383.143L136.072 383.143Z" fill="#2072E6"/>
<path d="M171.995 459.08C215.838 412.345 278.191 383.143 347.372 383.143C416.554 383.143 478.907 412.345 522.75 459.08L171.995 459.08Z" fill="#2072E6"/>
<path d="M199.744 509.705C240.479 477.981 291.715 459.08 347.372 459.08C403.029 459.08 454.265 477.981 495.001 509.705L199.744 509.705Z" fill="#2072E6"/>
<path d="M239.848 535.018C272.199 518.822 308.72 509.705 347.373 509.705C386.024 509.705 422.546 518.822 454.897 535.018L239.848 535.018Z" fill="#2072E6"/>
</g>
</g>
<path d="M616.825 360.018C563.825 342.518 547.325 274.018 556.325 256.018C565.325 238.018 593.825 239.518 593.825 239.518C603.658 234.351 630.825 226.318 660.825 235.518C698.325 247.018 697.325 285.018 691.325 311.018C685.325 337.018 663.325 375.371 616.825 360.018Z" fill="url(#paint1_linear_241_142)"/>
<path d="M77.6456 360.018C130.646 342.518 147.146 274.018 138.146 256.018C129.146 238.018 100.646 239.518 100.646 239.518C90.8124 234.351 63.6458 226.318 33.6458 235.518C-3.85425 247.018 -2.85449 285.018 3.14551 311.018C9.14551 337.018 31.1455 375.371 77.6456 360.018Z" fill="url(#paint2_linear_241_142)"/>
<path d="M485.656 9.44334C509.552 -4.89411 528.696 -0.202969 536.502 5.89549C539.33 8.10558 539.832 12.1898 537.622 15.0185C535.412 17.8474 531.327 18.3497 528.498 16.1396C525.637 13.9048 512.447 8.52861 492.344 20.5908C471.019 33.3858 452.665 50.8986 446.309 57.8896C443.895 60.5458 439.784 60.7416 437.128 58.3271C434.472 55.9123 434.276 51.8008 436.69 49.1445C443.668 41.4688 462.981 23.0482 485.656 9.44334Z" fill="#FF4E4E"/>
<path d="M208.344 9.44334C184.448 -4.89411 165.304 -0.202969 157.498 5.89549C154.67 8.10558 154.168 12.1898 156.378 15.0185C158.588 17.8474 162.673 18.3497 165.502 16.1396C168.363 13.9048 181.553 8.52861 201.656 20.5908C222.981 33.3858 241.335 50.8986 247.691 57.8896C250.105 60.5458 254.216 60.7416 256.872 58.3271C259.528 55.9123 259.724 51.8008 257.31 49.1445C250.332 41.4688 231.019 23.0482 208.344 9.44334Z" fill="#FF4E4E"/>
<ellipse cx="37.5" cy="36.5" rx="37.5" ry="36.5" transform="matrix(-1 0 0 1 293 141.018)" fill="#050810"/>
<circle cx="12.5" cy="12.5" r="12.5" transform="matrix(-1 0 0 1 274 159.018)" fill="#00E4CB"/>
<ellipse cx="439.5" cy="177.518" rx="37.5" ry="36.5" fill="#050810"/>
<circle cx="445.5" cy="171.518" r="12.5" fill="#00E4CB"/>
<defs>
<linearGradient id="paint0_linear_241_142" x1="143" y1="119.518" x2="500.5" y2="529.518" gradientUnits="userSpaceOnUse">
<stop stop-color="#F14646"/>
<stop offset="1" stop-color="#AE2525"/>
</linearGradient>
<linearGradient id="paint1_linear_241_142" x1="568.839" y1="253.066" x2="662.638" y2="355.449" gradientUnits="userSpaceOnUse">
<stop stop-color="#F14646"/>
<stop offset="1" stop-color="#AE2525"/>
</linearGradient>
<linearGradient id="paint2_linear_241_142" x1="26.8366" y1="241.267" x2="129.219" y2="335.066" gradientUnits="userSpaceOnUse">
<stop stop-color="#F14646"/>
<stop offset="1" stop-color="#AE2525"/>
</linearGradient>
<clipPath id="clip0_241_142">
<rect width="480" height="474.947" fill="white" transform="translate(110 535.018) rotate(-90)"/>
</clipPath>
</defs>
</svg>
